<mxfile host="app.diagrams.net" modified="2024-03-29T13:25:57.356Z" agent="Mozilla/5.0 (Windows NT 10.0; Win64; x64) AppleWebKit/537.36 (KHTML, like Gecko) Chrome/123.0.0.0 Safari/537.36" version="24.2.1" etag="2E5dpjG2myUF6vdrp5ln" type="github">
  <diagram name="Page-1" id="Y-_b7_Hh2nSIt7xtL80e">
    <mxGraphModel>
      <root>
        <mxCell id="0" />
        <mxCell id="1" parent="0" />
      </root>
    </mxGraphModel>
  </diagram>
</mxfile>
